<svg width="84" height="46" viewBox="0 0 84 46" fill="none" xmlns="http://www.w3.org/2000/svg">
<g filter="url(#filter0_dd_1_2448)">
<path d="M72.2528 7.20308L72.1289 23.1075C72.0987 26.7649 71.8546 28.4563 71.6544 29.2283C71.3875 30.2477 70.9162 31.199 70.2403 32.0524C69.5838 32.886 68.7709 33.5425 67.8112 34.002C66.8613 34.4614 65.7159 34.6846 64.3944 34.6814C63.0826 34.6683 61.8568 34.368 60.7267 33.7806C59.6356 33.2128 58.7962 32.4659 58.2182 31.5397C57.6207 30.5839 57.266 29.5972 57.1734 28.5895C57.0603 27.3546 57.012 25.4669 57.0285 22.9661L57.1525 7.06166L49.4081 7.00181L49.3911 9.43342C52.483 13.6879 54.2974 18.9569 54.2581 24.6505C54.2295 28.634 53.2865 32.3948 51.6418 35.7341C52.0139 36.3055 52.4151 36.857 52.8744 37.3785C54.2425 38.9334 55.9782 40.1601 58.0328 41.0295C60.0484 41.8793 62.3341 42.3225 64.8217 42.3495C68.0186 42.3729 70.871 41.5283 73.2819 39.8358C75.6831 38.1434 77.4018 35.9898 78.38 33.4249C79.3199 30.9689 79.7888 27.6157 79.8247 23.1676L79.9487 7.26318L72.2528 7.20308Z" fill="url(#paint0_linear_1_2448)"/>
<path d="M0.915959 6.58814L0.632812 41.8037L8.33764 41.8692L8.62079 6.6536L0.915959 6.58814Z" fill="url(#paint1_linear_1_2448)"/>
<path d="M28.0752 34.6674C25.5877 34.6503 23.533 33.7513 21.804 31.9314C20.4266 30.4854 19.5917 28.7005 19.2504 26.5178L45.1268 26.7335L45.0978 24.8358C45.0221 19.4493 43.3775 15.0887 40.2229 11.8823C37.0586 8.67599 33.0956 7.0255 28.4217 6.98973C23.7284 6.95405 19.7143 8.65459 16.4958 12.0611C13.3063 15.4378 11.6655 19.5579 11.6214 24.3125C11.5871 29.067 13.1431 33.2007 16.2696 36.6148C19.4157 40.0584 23.4764 41.827 28.3252 41.8619C35.1174 41.9167 40.3383 38.6582 43.8327 32.1566L44.7275 30.4124L36.5163 30.2759C34.4617 33.2614 31.6803 34.6987 28.0752 34.6674ZM28.4005 14.3635C30.6549 14.3818 32.5822 15.0541 34.2894 16.4095C35.4015 17.2935 36.2134 18.3668 36.7545 19.6886L20.2938 19.5441C21.9279 16.027 24.5914 14.3234 28.4005 14.3635Z" fill="#D00000"/>
<path d="M46.0644 40.1917L45.4932 42.5271L44.0166 40.6468L41.6565 40.8168L42.958 38.8138L42.0724 36.5846L44.3491 37.2155L46.1582 35.6745L46.2674 38.0756L48.2753 39.3504L46.0644 40.1917Z" fill="#D00000"/>
<path d="M50.7469 29.5211L51.39 31.8306L49.1898 30.9522L47.234 32.2963L47.3774 29.8939L45.5142 28.4108L47.8041 27.8063L48.6185 25.5488L49.8821 27.5784L52.2435 27.6653L50.7469 29.5211Z" fill="#D00000"/>
<path d="M50.0717 17.1805L51.79 18.8323L49.4601 19.2196L48.4509 21.399L47.3617 19.2598L45.0186 18.9553L46.6812 17.247L46.2417 14.8771L48.3556 15.9636L50.4289 14.8066L50.0717 17.1805Z" fill="#D00000"/>
<path d="M43.5019 7.12345L45.7976 7.67525L43.969 9.19664L44.1657 11.5973L42.1771 10.2928L39.9958 11.2329L40.5961 8.89735L39.0518 7.07667L41.4121 6.9363L42.6357 4.88424L43.5019 7.12345Z" fill="#D00000"/>
<path d="M32.9504 1.78762L35.2204 1.09422L34.3768 3.34204L35.7178 5.32188L33.3563 5.20528L31.9279 7.12L31.3041 4.79062L29.0751 3.99139L31.0506 2.67682L31.1065 0.274835L32.9504 1.78762Z" fill="#D00000"/>
<path d="M21.0904 2.52069L22.7138 0.773011L23.095 3.14314L25.2376 4.17013L23.1349 5.27779L22.8359 7.66122L21.1563 5.96971L18.8267 6.41632L19.8944 4.26621L18.7567 2.15686L21.0904 2.52069Z" fill="#D00000"/>
<path d="M11.2151 9.18268L11.7571 6.84744L13.253 8.70789L15.613 8.50822L14.331 10.5309L15.2457 12.7501L12.9594 12.139L11.1699 13.7096L11.0315 11.3086L9.01397 10.0536L11.2151 9.18268Z" fill="#D00000"/>
</g>
<defs>
<filter id="filter0_dd_1_2448" x="-3.36719" y="0.274902" width="87.3159" height="50.2522" filterUnits="userSpaceOnUse" color-interpolation-filters="sRGB">
<feFlood flood-opacity="0" result="BackgroundImageFix"/>
<feColorMatrix in="SourceAlpha" type="matrix" values="0 0 0 0 0 0 0 0 0 0 0 0 0 0 0 0 0 0 127 0" result="hardAlpha"/>
<feOffset dy="4"/>
<feGaussianBlur stdDeviation="2"/>
<feComposite in2="hardAlpha" operator="out"/>
<feColorMatrix type="matrix" values="0 0 0 0 0 0 0 0 0 0 0 0 0 0 0 0 0 0 0.25 0"/>
<feBlend mode="normal" in2="BackgroundImageFix" result="effect1_dropShadow_1_2448"/>
<feColorMatrix in="SourceAlpha" type="matrix" values="0 0 0 0 0 0 0 0 0 0 0 0 0 0 0 0 0 0 127 0" result="hardAlpha"/>
<feOffset dy="4"/>
<feGaussianBlur stdDeviation="2"/>
<feComposite in2="hardAlpha" operator="out"/>
<feColorMatrix type="matrix" values="0 0 0 0 0 0 0 0 0 0 0 0 0 0 0 0 0 0 0.25 0"/>
<feBlend mode="normal" in2="effect1_dropShadow_1_2448" result="effect2_dropShadow_1_2448"/>
<feBlend mode="normal" in="SourceGraphic" in2="effect2_dropShadow_1_2448" result="shape"/>
</filter>
<linearGradient id="paint0_linear_1_2448" x1="80.0358" y1="24.5609" x2="49.4681" y2="24.7148" gradientUnits="userSpaceOnUse">
<stop stop-color="#001C54"/>
<stop offset="1" stop-color="#001C54"/>
</linearGradient>
<linearGradient id="paint1_linear_1_2448" x1="4.76837" y1="6.62088" x2="4.46923" y2="41.8363" gradientUnits="userSpaceOnUse">
<stop stop-color="#001C54"/>
<stop offset="1" stop-color="#001C54"/>
</linearGradient>
</defs>
</svg>
