<svg width="16" height="16" viewBox="0 0 16 16" fill="none" xmlns="http://www.w3.org/2000/svg">
<path d="M0.332793 2.9441C2.52875 4.74743 6.38198 7.92003 7.51449 8.90925C7.66652 9.04276 7.82959 9.11064 7.99887 9.11064C8.16781 9.11064 8.33059 9.0434 8.48228 8.91052C9.61576 7.92033 13.469 4.74743 15.665 2.9441C15.8017 2.83204 15.8225 2.63508 15.7119 2.49808C15.456 2.18151 15.0745 2 14.6656 2H1.33215C0.923299 2 0.541763 2.18151 0.285917 2.49811C0.175228 2.63508 0.196072 2.83204 0.332793 2.9441Z" fill="url(#paint0_linear_1_2423)"/>
<path d="M15.8057 3.92076C15.6876 3.86743 15.5486 3.88603 15.4503 3.96749C14.0121 5.14958 12.1172 6.71143 10.6882 7.90331C10.613 7.96582 10.5707 8.05767 10.5723 8.15394C10.5739 8.24991 10.6198 8.34048 10.6973 8.40045C12.0251 9.43167 14.0261 10.8502 15.4711 11.8584C15.5287 11.8988 15.5971 11.9193 15.6658 11.9193C15.7179 11.9193 15.7699 11.9076 15.8178 11.8836C15.9292 11.8284 15.9991 11.7173 15.9991 11.5961V4.214C15.9991 4.08806 15.9236 3.97349 15.8057 3.92076Z" fill="url(#paint1_linear_1_2423)"/>
<path d="M0.528005 11.8594C1.97333 10.8512 3.97467 9.43265 5.30215 8.40139C5.37962 8.34143 5.42553 8.25082 5.42715 8.15488C5.42878 8.05861 5.38646 7.96677 5.31127 7.90425C3.8822 6.71237 1.98699 5.15052 0.548849 3.96843C0.44988 3.88697 0.310566 3.86901 0.193377 3.9217C0.075532 3.97443 0 4.089 0 4.21494V11.5971C0 11.7183 0.0700007 11.8294 0.181314 11.8846C0.229159 11.9086 0.281253 11.9203 0.333347 11.9203C0.402035 11.9203 0.47038 11.8998 0.528005 11.8594Z" fill="url(#paint2_linear_1_2423)"/>
<path d="M15.5917 12.7378C14.1962 11.7697 11.6255 9.96483 10.091 8.75713C9.96596 8.65834 9.78496 8.66149 9.66193 8.7644C9.36083 9.01912 9.10886 9.23378 8.93014 9.38969C8.38129 9.8701 7.61956 9.8701 7.06943 9.38905C6.89137 9.23345 6.63943 9.01815 6.3383 8.76437C6.21623 8.66083 6.03492 8.65767 5.90957 8.7571C4.38025 9.96068 1.80666 11.7678 0.40886 12.7378C0.331047 12.7921 0.280922 12.8757 0.271172 12.9682C0.261734 13.0607 0.293297 13.1525 0.358735 13.2207C0.61105 13.4843 0.966523 13.6355 1.3334 13.6355H14.6669C15.0338 13.6355 15.3889 13.4843 15.6418 13.2207C15.7069 13.1529 15.7388 13.061 15.7294 12.9685C15.7196 12.8761 15.6695 12.7921 15.5917 12.7378Z" fill="url(#paint3_linear_1_2423)"/>
<defs>
<linearGradient id="paint0_linear_1_2423" x1="15.7829" y1="5.55532" x2="0.214843" y2="5.55533" gradientUnits="userSpaceOnUse">
<stop stop-color="#001C54"/>
<stop offset="1" stop-color="#001C54"/>
</linearGradient>
<linearGradient id="paint1_linear_1_2423" x1="15.9991" y1="7.90497" x2="10.5723" y2="7.90497" gradientUnits="userSpaceOnUse">
<stop stop-color="#001C54"/>
<stop offset="1" stop-color="#001C54"/>
</linearGradient>
<linearGradient id="paint2_linear_1_2423" x1="5.42719" y1="7.90607" x2="-1.0638e-07" y2="7.90607" gradientUnits="userSpaceOnUse">
<stop stop-color="#001C54"/>
<stop offset="1" stop-color="#001C54"/>
</linearGradient>
<linearGradient id="paint3_linear_1_2423" x1="15.731" y1="11.16" x2="0.269531" y2="11.16" gradientUnits="userSpaceOnUse">
<stop stop-color="#001C54"/>
<stop offset="1" stop-color="#001C54"/>
</linearGradient>
</defs>
</svg>
