<svg width="70.000000" height="70.000000" viewBox="0 0 70 70" fill="none" xmlns="http://www.w3.org/2000/svg" xmlns:xlink="http://www.w3.org/1999/xlink">
	<desc>
			Created with Pixso.
	</desc>
	<defs>
		<filter id="filter_2_3230_dd" x="0.000000" y="-0.049316" width="70.000000" height="70.000000" filterUnits="userSpaceOnUse" color-interpolation-filters="sRGB">
			<feFlood flood-opacity="0" result="BackgroundImageFix"/>
			<feColorMatrix in="SourceAlpha" type="matrix" values="0 0 0 0 0 0 0 0 0 0 0 0 0 0 0 0 0 0 127 0" result="hardAlpha"/>
			<feOffset dx="0" dy="1"/>
			<feGaussianBlur stdDeviation="5"/>
			<feComposite in2="hardAlpha" operator="out" k2="-1" k3="1"/>
			<feColorMatrix type="matrix" values="0 0 0 0 0 0 0 0 0 0 0 0 0 0 0 0 0 0 0.1 0"/>
			<feBlend mode="normal" in2="BackgroundImageFix" result="effect_dropShadow_1"/>
			<feBlend mode="normal" in="SourceGraphic" in2="effect_dropShadow_1" result="shape"/>
		</filter>
	</defs>
	<g filter="url(#filter_2_3230_dd)">
		<path id="Ellipse 1" d="M55 33.95C55 44.99 46.04 53.95 35 53.95C23.95 53.95 15 44.99 15 33.95C15 22.9 23.95 13.95 35 13.95C46.04 13.95 55 22.9 55 33.95Z" fill="#C50000" fill-opacity="1.000000" fill-rule="nonzero"/>
		<path id="Ellipse 2" d="M35 51.45C44.66 51.45 52.5 43.61 52.5 33.95C52.5 24.28 44.66 16.45 35 16.45C25.33 16.45 17.5 24.28 17.5 33.95C17.5 43.61 25.33 51.45 35 51.45ZM41.23 49.01Q38.36 50.2 35 50.2Q31.63 50.2 28.76 49.01Q25.88 47.82 23.5 45.44Q21.12 43.06 19.93 40.18Q18.75 37.31 18.75 33.95Q18.75 30.58 19.93 27.71Q21.12 24.83 23.5 22.46Q25.88 20.08 28.76 18.89Q31.63 17.7 35 17.7Q38.36 17.7 41.23 18.89Q44.11 20.08 46.49 22.46Q48.87 24.83 50.06 27.71Q51.25 30.58 51.25 33.95Q51.25 37.31 50.06 40.18Q48.87 43.06 46.49 45.44Q44.11 47.82 41.23 49.01Z" fill="#FFFFFF" fill-opacity="1.000000" fill-rule="evenodd"/>
		<path id="Apply Online" d="M38.55 32.57L39.62 32.57L39.62 26.95L38.55 26.95L38.55 32.57ZM26.34 31.47L28.26 31.47L28.63 32.57L29.8 32.57L27.81 27.24L26.79 27.24L24.8 32.57L25.97 32.57L26.34 31.47ZM33.21 32.09Q33.62 31.54 33.62 30.63L33.62 30.57Q33.62 29.62 33.21 29.08Q33.05 28.86 32.83 28.73Q32.51 28.53 32.08 28.53Q31.74 28.53 31.47 28.67Q31.25 28.78 31.07 29L31.04 28.61L30.05 28.61L30.05 34.09L31.11 34.09L31.11 32.23Q31.26 32.39 31.44 32.49Q31.72 32.64 32.08 32.64Q32.46 32.64 32.75 32.49Q33.01 32.35 33.21 32.09ZM37.43 32.09Q37.84 31.54 37.84 30.63L37.84 30.57Q37.84 29.62 37.44 29.08Q37.27 28.86 37.06 28.73Q36.74 28.53 36.3 28.53Q35.96 28.53 35.7 28.67Q35.47 28.78 35.29 29L35.26 28.61L34.28 28.61L34.28 34.09L35.33 34.09L35.33 32.23Q35.48 32.39 35.66 32.49Q35.94 32.64 36.31 32.64Q36.68 32.64 36.97 32.49Q37.23 32.35 37.43 32.09ZM27.97 30.58L26.63 30.58L27.3 28.59L27.97 30.58ZM42.7 28.61L41.97 31.07L41.23 28.61L40.09 28.61L41.48 32.58L41.36 32.91Q41.27 33.12 41.12 33.21Q40.97 33.3 40.67 33.3L40.51 33.3L40.51 34.1Q40.75 34.17 40.98 34.17Q41.36 34.17 41.64 34.01Q41.96 33.81 42.15 33.39L42.24 33.19L43.83 28.61L42.7 28.61ZM32.37 29.7Q32.56 30 32.56 30.55Q32.56 31.45 32.16 31.7Q32.01 31.79 31.8 31.79Q31.5 31.79 31.31 31.64Q31.19 31.55 31.11 31.4L31.11 29.78Q31.18 29.64 31.29 29.55Q31.48 29.4 31.8 29.4Q32 29.4 32.15 29.48Q32.28 29.56 32.37 29.7ZM36.59 29.7Q36.78 30 36.78 30.55Q36.78 31.45 36.38 31.7Q36.23 31.79 36.03 31.79Q35.72 31.79 35.53 31.64Q35.41 31.55 35.33 31.4L35.33 29.78Q35.4 29.64 35.51 29.55Q35.7 29.4 36.02 29.4Q36.22 29.4 36.37 29.48Q36.5 29.56 36.59 29.7ZM34.28 41.57L35.34 41.57L35.34 35.95L34.28 35.95L34.28 41.57ZM36.27 36.32Q36.21 36.44 36.21 36.58Q36.21 36.73 36.27 36.85Q36.31 36.92 36.37 36.98Q36.4 37.01 36.44 37.03Q36.58 37.13 36.8 37.13Q37.02 37.13 37.16 37.03Q37.2 37.01 37.23 36.98Q37.29 36.92 37.33 36.85Q37.39 36.73 37.39 36.58Q37.39 36.44 37.33 36.33Q37.3 36.25 37.23 36.19Q37.2 36.17 37.17 36.14Q37.03 36.04 36.8 36.04Q36.56 36.04 36.41 36.15Q36.39 36.17 36.37 36.19Q36.3 36.25 36.27 36.32ZM29.02 40.41Q29.3 39.81 29.3 39.03L29.3 38.79Q29.3 38 29.01 37.4Q28.8 36.95 28.45 36.66Q28.34 36.56 28.21 36.49Q28.1 36.42 27.99 36.37Q27.55 36.17 27.03 36.17Q26.5 36.17 26.06 36.37Q25.95 36.42 25.84 36.49Q25.71 36.56 25.6 36.66Q25.25 36.95 25.04 37.4Q24.75 38 24.75 38.79L24.75 39.05Q24.76 39.82 25.04 40.42Q25.25 40.85 25.59 41.13Q25.71 41.24 25.85 41.33Q25.97 41.4 26.09 41.45Q26.52 41.64 27.03 41.64Q27.57 41.64 28.01 41.44Q28.12 41.39 28.22 41.32Q28.37 41.23 28.49 41.12Q28.82 40.83 29.02 40.41ZM27.88 37.51Q28.18 37.95 28.18 38.78L28.18 39.04Q28.18 39.88 27.88 40.31Q27.75 40.5 27.57 40.61Q27.34 40.74 27.03 40.74Q26.72 40.74 26.5 40.61Q26.3 40.5 26.17 40.29Q25.87 39.84 25.87 39.03L25.87 38.77Q25.87 37.93 26.17 37.5Q26.3 37.32 26.48 37.21Q26.72 37.07 27.03 37.07Q27.34 37.07 27.57 37.21Q27.75 37.32 27.88 37.51ZM31.03 38.07L31 37.61L30 37.61L30 41.57L31.06 41.57L31.06 38.78Q31.17 38.59 31.33 38.5Q31.5 38.4 31.73 38.4Q32.07 38.4 32.22 38.55Q32.36 38.7 32.36 39.04L32.36 41.57L33.42 41.57L33.42 39.01Q33.42 38.27 33.11 37.9Q33.06 37.85 33 37.8Q32.7 37.53 32.17 37.53Q31.77 37.53 31.46 37.7Q31.22 37.83 31.03 38.07ZM39.21 38.07L39.18 37.61L38.18 37.61L38.18 41.57L39.24 41.57L39.24 38.78Q39.35 38.59 39.51 38.5Q39.68 38.4 39.91 38.4Q40.25 38.4 40.4 38.55Q40.54 38.7 40.54 39.04L40.54 41.57L41.6 41.57L41.6 39.01Q41.59 38.27 41.29 37.9Q41.24 37.85 41.18 37.8Q40.88 37.53 40.35 37.53Q39.94 37.53 39.63 37.7Q39.39 37.83 39.21 38.07ZM43.14 41.36Q43.6 41.64 44.23 41.64Q44.72 41.64 45.13 41.46Q45.45 41.3 45.67 41.06Q45.73 41 45.77 40.93L45.25 40.35Q45.12 40.52 44.94 40.63Q44.67 40.79 44.3 40.79Q44 40.79 43.79 40.66Q43.71 40.62 43.64 40.56Q43.57 40.49 43.52 40.42Q43.37 40.22 43.33 39.93L45.86 39.93L45.86 39.5Q45.86 38.56 45.39 38.05Q45.27 37.91 45.12 37.81Q44.71 37.53 44.11 37.53Q43.67 37.53 43.3 37.7Q43.22 37.74 43.14 37.79Q43.01 37.87 42.9 37.97Q42.65 38.19 42.49 38.51Q42.26 38.99 42.26 39.58L42.26 39.68Q42.26 40.34 42.56 40.81Q42.67 40.97 42.81 41.11Q42.96 41.26 43.14 41.36ZM36.27 41.57L37.33 41.57L37.33 37.61L36.27 37.61L36.27 41.57ZM43.75 38.48Q43.91 38.39 44.11 38.39Q44.39 38.39 44.57 38.53Q44.6 38.56 44.63 38.58Q44.63 38.59 44.64 38.59Q44.81 38.79 44.82 39.13L44.82 39.21L43.34 39.21Q43.4 38.82 43.59 38.6Q43.67 38.53 43.75 38.48Z" fill="#FFFFFF" fill-opacity="1.000000" fill-rule="evenodd"/>
	</g>
</svg>
