<svg width="24.000000" height="24.000000" viewBox="0 0 24 24" fill="none" xmlns="http://www.w3.org/2000/svg" xmlns:xlink="http://www.w3.org/1999/xlink">
	<desc>
			Created with Pixso.
	</desc>
	<defs>
		<clipPath id="clip2_3260">
			<rect id="origami 1" rx="-0.500000" width="12.800000" height="12.800000" transform="translate(5.599609 5.600098)" fill="white" fill-opacity="0"/>
		</clipPath>
	</defs>
	<rect id="Rectangle 17" rx="5.000000" width="24.000000" height="24.000000" fill="#C50000" fill-opacity="1.000000"/>
	<rect id="origami 1" rx="-0.500000" width="12.800000" height="12.800000" transform="translate(5.599609 5.600098)" fill="#FFFFFF" fill-opacity="0"/>
	<g clip-path="url(#clip2_3260)">
		<path id="Vector" d="M18.2 6.3C18.1 6.23 17.99 6.23 17.89 6.28L5.81 13.18C5.72 13.24 5.66 13.35 5.67 13.46C5.68 13.57 5.76 13.67 5.87 13.71L9.47 14.91L10.86 18.71C10.9 18.82 11.01 18.9 11.13 18.9C11.14 18.9 11.15 18.89 11.16 18.89C11.24 18.88 11.31 18.84 11.35 18.78L13.4 16.22L16.22 17.16C16.25 17.17 16.28 17.17 16.31 17.17C16.36 17.17 16.41 17.16 16.45 17.13C16.53 17.09 16.58 17.01 16.59 16.93L18.31 6.58C18.33 6.47 18.29 6.36 18.2 6.3ZM11.3 15.12C11.28 15.16 11.26 15.21 11.25 15.26L10.99 17.39L10.03 14.75L15.65 9.26L11.3 15.12Z" fill="#FFFFFF" fill-opacity="1.000000" fill-rule="nonzero"/>
	</g>
</svg>
