<svg width="24.000000" height="24.000000" viewBox="0 0 24 24" fill="none" xmlns="http://www.w3.org/2000/svg" xmlns:xlink="http://www.w3.org/1999/xlink">
	<desc>
			Created with Pixso.
	</desc>
	<defs>
		<clipPath id="clip2_3305">
			<rect id="Frame 1462" rx="-0.424980" width="12.961878" height="12.961878" transform="translate(5.424980 5.424980)" fill="white" fill-opacity="0"/>
		</clipPath>
	</defs>
	<rect id="Rectangle 2023" rx="5.000000" width="24.000002" height="24.000002" fill="#C50000" fill-opacity="1.000000"/>
	<g clip-path="url(#clip2_3305)">
		<path id="Rectangle 1640" d="M8.68 6.49L17.89 6.49C18.4 6.49 18.81 6.9 18.81 7.41C18.81 7.92 18.4 8.33 17.89 8.33L8.68 8.33C8.17 8.33 7.76 7.92 7.76 7.41C7.76 6.9 8.17 6.49 8.68 6.49Z" fill="#FFFFFF" fill-opacity="1.000000" fill-rule="nonzero"/>
		<path id="Rectangle 1641" d="M8.68 11.1L17.89 11.1C18.4 11.1 18.81 11.51 18.81 12.02C18.81 12.53 18.4 12.94 17.89 12.94L8.68 12.94C8.17 12.94 7.76 12.53 7.76 12.02C7.76 11.51 8.17 11.1 8.68 11.1Z" fill="#FFFFFF" fill-opacity="1.000000" fill-rule="nonzero"/>
		<path id="Rectangle 1642" d="M8.68 15.7L17.89 15.7C18.4 15.7 18.81 16.11 18.81 16.62C18.81 17.13 18.4 17.54 17.89 17.54L8.68 17.54C8.17 17.54 7.76 17.13 7.76 16.62C7.76 16.11 8.17 15.7 8.68 15.7Z" fill="#FFFFFF" fill-opacity="1.000000" fill-rule="nonzero"/>
		<circle id="Ellipse 537" cx="5.920776" cy="7.416992" r="0.920789" fill="#FFFFFF" fill-opacity="1.000000"/>
		<circle id="Ellipse 538" cx="5.920776" cy="12.021484" r="0.920789" fill="#FFFFFF" fill-opacity="1.000000"/>
		<circle id="Ellipse 539" cx="5.920776" cy="16.624512" r="0.920789" fill="#FFFFFF" fill-opacity="1.000000"/>
	</g>
</svg>
