<svg width="10.000000" height="10.000000" viewBox="0 0 10 10" fill="none" xmlns="http://www.w3.org/2000/svg" xmlns:xlink="http://www.w3.org/1999/xlink">
	<desc>
			Created with Pixso.
	</desc>
	<defs>
		<clipPath id="clip2_2961">
			<rect id="diploma 2" rx="-0.380000" width="9.240000" height="9.240000" transform="translate(0.380000 0.380000)" fill="white" fill-opacity="0"/>
		</clipPath>
	</defs>
	<rect id="diploma 2" rx="-0.380000" width="9.240000" height="9.240000" transform="translate(0.380000 0.380000)" fill="#FFFFFF" fill-opacity="0"/>
	<g clip-path="url(#clip2_2961)">
		<path id="Vector" d="M3.04 9.44C3.01 9.07 2.81 8.74 2.49 8.55C2.16 8.36 1.78 8.34 1.44 8.51L1.22 8.61C1.09 8.67 0.94 8.63 0.85 8.52C0.77 8.4 0.79 8.24 0.89 8.14L2.76 6.26C2.04 5.94 1.16 6.07 0.57 6.66C-0.19 7.42 -0.19 8.66 0.57 9.42C1.24 10.1 2.29 10.18 3.05 9.65L3.04 9.44Z" fill="#001C54" fill-opacity="1.000000" fill-rule="nonzero"/>
		<path id="Vector" d="M2.04 7.82C2.3 7.83 2.55 7.91 2.79 8.05C3.19 8.28 3.47 8.67 3.58 9.12C4.08 8.36 4 7.33 3.33 6.66C3.31 6.64 3.29 6.62 3.26 6.59L2.04 7.82Z" fill="#001C54" fill-opacity="1.000000" fill-rule="nonzero"/>
		<path id="Vector" d="M4.06 2.61C3.61 3.07 3.61 3.81 4.06 4.27C4.52 4.73 5.26 4.73 5.72 4.27C6.18 3.81 6.18 3.07 5.72 2.61C5.26 2.15 4.52 2.15 4.06 2.61ZM5.1 3.65C4.99 3.76 4.8 3.76 4.69 3.65C4.57 3.53 4.57 3.35 4.69 3.23C4.8 3.12 4.99 3.12 5.1 3.23C5.21 3.35 5.21 3.53 5.1 3.65Z" fill="#001C54" fill-opacity="1.000000" fill-rule="nonzero"/>
		<path id="Vector" d="M6.14 4.68C6.07 4.75 5.99 4.82 5.91 4.87L6.73 5.69C6.87 5.55 7.01 5.42 7.15 5.28L6.33 4.46C6.27 4.54 6.21 4.61 6.14 4.68Z" fill="#001C54" fill-opacity="1.000000" fill-rule="nonzero"/>
		<path id="Vector" d="M6.21 7.11L7.04 7.93C7.12 8.02 7.27 7.97 7.3 7.85L7.38 7.44L7.78 7.36C7.91 7.34 7.95 7.19 7.86 7.1L7.01 6.24L6.75 6.51C6.57 6.71 6.39 6.91 6.21 7.11Z" fill="#001C54" fill-opacity="1.000000" fill-rule="nonzero"/>
		<path id="Vector" d="M3.93 4.49C3.78 4.34 3.66 4.17 3.58 4C3.35 4.2 3.11 4.4 2.87 4.59L2.47 4.91C2.31 5.04 2.15 5.18 2 5.32C2.72 5.26 3.47 5.5 4.02 6.05C4.57 6.61 4.82 7.36 4.75 8.08C4.9 7.93 5.03 7.77 5.16 7.61L5.48 7.21C5.84 6.76 6.21 6.33 6.6 5.92L5.62 4.95C5.04 5.1 4.39 4.95 3.93 4.49Z" fill="#001C54" fill-opacity="1.000000" fill-rule="nonzero"/>
		<path id="Vector" d="M7.97 5.32L7.56 5.69L7.42 5.82L8.83 7.24C8.92 7.33 9.07 7.28 9.1 7.16L9.18 6.75L9.58 6.67C9.7 6.65 9.75 6.5 9.66 6.41L8.29 5.04C8.18 5.13 8.08 5.22 7.97 5.32Z" fill="#001C54" fill-opacity="1.000000" fill-rule="nonzero"/>
		<path id="Vector" d="M6.66 0.57C6.5 0.73 6.34 0.91 6.2 1.09C6.01 1.35 5.81 1.59 5.61 1.83C5.8 1.92 5.98 2.04 6.14 2.2C6.6 2.66 6.75 3.31 6.59 3.89L7.58 4.88C8 4.5 8.44 4.14 8.9 3.79C9.08 3.65 9.26 3.49 9.42 3.33C10.19 2.57 10.19 1.33 9.42 0.57C8.66 -0.2 7.42 -0.2 6.66 0.57Z" fill="#001C54" fill-opacity="1.000000" fill-rule="nonzero"/>
	</g>
</svg>
