<svg width="10.000000" height="10.000000" viewBox="0 0 10 10" fill="none" xmlns="http://www.w3.org/2000/svg" xmlns:xlink="http://www.w3.org/1999/xlink">
	<desc>
			Created with Pixso.
	</desc>
	<defs/>
	<path id="image 370 (Traced)" d="M4.87 0.03C4.83 0.05 4.63 0.21 4.42 0.38L4.04 0.71L4.52 0.71C4.78 0.71 5.21 0.71 5.48 0.71L5.96 0.71L5.57 0.38C5.36 0.21 5.16 0.05 5.13 0.03C5.05 -0.02 4.95 -0.02 4.87 0.03ZM2.01 1.34C1.97 1.37 1.92 1.41 1.9 1.46C1.86 1.53 1.86 1.57 1.86 3.31L1.86 5.08L2.89 5.88L3.92 6.68L5 6.68L6.07 6.68L7.1 5.88L8.13 5.08L8.13 3.31C8.13 1.57 8.13 1.53 8.09 1.46C8.07 1.41 8.03 1.37 7.98 1.34C7.9 1.3 7.87 1.3 4.99 1.3C2.14 1.3 2.08 1.3 2.01 1.34ZM5.3 2.01C6.01 2.11 6.62 2.55 6.94 3.19C7.08 3.46 7.13 3.7 7.13 4.01C7.13 4.52 6.92 5.04 6.62 5.26C6.46 5.38 6.32 5.43 6.1 5.44C5.87 5.45 5.75 5.41 5.59 5.26L5.48 5.16L5.37 5.22C5.15 5.36 4.85 5.39 4.61 5.31C4.16 5.15 3.86 4.69 3.86 4.13C3.85 3.65 4.06 3.27 4.43 3.05C4.65 2.92 4.99 2.88 5.22 2.96C5.28 2.98 5.34 3 5.35 3C5.36 3 5.38 2.97 5.39 2.93C5.49 2.74 5.78 2.74 5.9 2.93C5.94 2.99 5.94 3.03 5.94 3.88C5.94 4.89 5.93 4.86 6.08 4.86C6.18 4.86 6.25 4.82 6.34 4.72C6.5 4.53 6.59 4.02 6.52 3.72C6.39 3.21 5.96 2.78 5.42 2.63C5.21 2.57 4.82 2.56 4.62 2.62C3.91 2.81 3.45 3.41 3.45 4.14C3.45 4.4 3.49 4.59 3.61 4.83C3.77 5.15 4.02 5.39 4.34 5.54C4.52 5.63 4.68 5.67 4.88 5.69C5.07 5.71 5.16 5.75 5.21 5.85C5.26 5.95 5.26 6.03 5.21 6.13C5.16 6.22 5.05 6.29 4.93 6.28C4.68 6.28 4.29 6.18 4.02 6.04C3.31 5.67 2.86 4.94 2.86 4.15C2.86 3.57 3.06 3.07 3.45 2.66C3.93 2.15 4.62 1.91 5.3 2.01ZM0.8 3.42C0.55 3.63 0.33 3.82 0.31 3.83C0.29 3.85 0.37 3.92 0.77 4.23C1.04 4.44 1.26 4.6 1.26 4.6C1.27 4.59 1.27 4.24 1.27 3.81L1.26 3.04L0.8 3.42ZM8.72 3.82C8.72 4.25 8.73 4.6 8.73 4.6C8.75 4.6 9.68 3.89 9.69 3.86C9.7 3.85 8.82 3.1 8.75 3.05C8.73 3.04 8.72 3.17 8.72 3.82ZM4.81 3.52C4.7 3.55 4.63 3.61 4.55 3.72C4.36 3.99 4.42 4.47 4.68 4.68C4.93 4.89 5.23 4.72 5.32 4.32C5.36 4.18 5.35 3.98 5.31 3.84C5.24 3.59 5.02 3.45 4.81 3.52ZM0 6.97C0 8.39 0 9.55 0 9.55C0.02 9.55 3.32 6.98 3.32 6.97C3.32 6.95 0.02 4.39 0 4.39C0 4.39 0 5.55 0 6.97ZM8.33 5.67C7.42 6.38 6.67 6.96 6.67 6.97C6.67 6.98 7.42 7.56 8.33 8.27L9.99 9.55L9.99 8.26C10 7.55 10 6.39 9.99 5.68L9.99 4.39L8.33 5.67ZM2.16 8.62L0.4 9.99L2.7 9.99C3.96 10 6.03 10 7.29 9.99L9.59 9.99L7.83 8.62L6.07 7.26L5 7.26L3.92 7.26L2.16 8.62Z" fill="#001C54" fill-opacity="1.000000" fill-rule="evenodd"/>
</svg>
