<svg width="18.000000" height="18.000000" viewBox="0 0 18 18" fill="none" xmlns="http://www.w3.org/2000/svg" xmlns:xlink="http://www.w3.org/1999/xlink">
	<desc>
			Created with Pixso.
	</desc>
	<defs/>
	<path d="M8.76 0.05C8.7 0.09 8.34 0.38 7.96 0.69L7.27 1.27L8.13 1.28C8.61 1.29 9.39 1.29 9.86 1.28L10.73 1.27L10.04 0.69C9.65 0.38 9.29 0.09 9.23 0.05C9.09 -0.02 8.91 -0.02 8.76 0.05ZM3.62 2.42C3.54 2.46 3.46 2.54 3.42 2.63C3.35 2.76 3.35 2.83 3.35 5.96L3.35 9.15L5.21 10.59L7.06 12.02L9 12.02L10.94 12.02L12.79 10.59L14.64 9.15L14.64 5.96C14.65 2.83 14.64 2.76 14.58 2.63C14.53 2.54 14.45 2.46 14.36 2.42C14.23 2.35 14.17 2.35 8.99 2.35C3.85 2.35 3.75 2.35 3.62 2.42ZM9.55 3.62C10.82 3.79 11.92 4.59 12.5 5.74C12.75 6.23 12.85 6.66 12.85 7.22C12.84 8.14 12.46 9.08 11.92 9.47C11.63 9.69 11.37 9.78 10.99 9.8C10.58 9.82 10.35 9.74 10.07 9.47L9.87 9.29L9.67 9.41C9.27 9.65 8.73 9.71 8.31 9.56C7.49 9.27 6.95 8.44 6.95 7.44C6.94 6.58 7.31 5.88 7.97 5.49C8.37 5.25 8.98 5.19 9.4 5.33C9.51 5.37 9.62 5.41 9.63 5.41C9.64 5.41 9.68 5.35 9.71 5.28C9.88 4.94 10.41 4.93 10.62 5.28C10.69 5.39 10.69 5.46 10.69 6.99C10.69 8.8 10.68 8.75 10.94 8.75C11.13 8.75 11.26 8.68 11.41 8.5C11.71 8.16 11.87 7.24 11.74 6.71C11.5 5.78 10.73 5.01 9.75 4.73C9.39 4.63 8.68 4.62 8.33 4.72C7.05 5.07 6.21 6.15 6.21 7.45C6.21 7.92 6.29 8.26 6.51 8.7C6.79 9.27 7.23 9.7 7.81 9.98C8.15 10.14 8.42 10.22 8.79 10.25C9.12 10.28 9.29 10.36 9.39 10.54C9.48 10.72 9.48 10.86 9.39 11.04C9.3 11.21 9.1 11.32 8.88 11.32C8.42 11.32 7.73 11.13 7.23 10.88C5.96 10.21 5.15 8.9 5.15 7.48C5.15 6.44 5.51 5.53 6.22 4.79C7.08 3.88 8.32 3.45 9.55 3.62ZM1.44 6.16C0.99 6.54 0.59 6.88 0.57 6.9C0.53 6.94 0.67 7.07 1.39 7.62C1.87 7.99 2.27 8.29 2.27 8.28C2.28 8.27 2.29 7.64 2.28 6.87L2.27 5.47L1.44 6.16ZM15.71 6.88C15.71 7.66 15.71 8.29 15.73 8.29C15.75 8.29 17.43 7 17.45 6.96C17.47 6.93 15.89 5.58 15.75 5.5C15.71 5.48 15.71 5.7 15.71 6.88ZM8.66 6.34C8.47 6.4 8.34 6.5 8.2 6.69C7.85 7.18 7.97 8.05 8.42 8.43C8.87 8.8 9.41 8.5 9.58 7.78C9.64 7.52 9.64 7.16 9.56 6.91C9.43 6.47 9.03 6.22 8.66 6.34ZM0 12.55C0 15.1 0 17.19 0.01 17.19C0.05 17.19 5.98 12.58 5.98 12.55C5.98 12.52 0.05 7.91 0.01 7.91C0 7.91 0 9.99 0 12.55ZM15 10.21C13.36 11.48 12.02 12.53 12.02 12.55C12.02 12.56 13.36 13.62 15 14.89L17.98 17.2L17.99 14.87C18 13.59 18 11.5 17.99 10.22L17.98 7.9L15 10.21ZM3.9 15.53L0.73 17.98L4.86 17.99C7.14 18 10.86 18 13.13 17.99L17.27 17.98L14.1 15.53L10.94 13.08L9 13.08L7.06 13.08L3.9 15.53Z" fill="#001C54" fill-opacity="1.000000" fill-rule="evenodd"/>
</svg>
