<svg width="18.000000" height="18.000000" viewBox="0 0 18 18" fill="none" xmlns="http://www.w3.org/2000/svg" xmlns:xlink="http://www.w3.org/1999/xlink">
	<desc>
			Created with Pixso.
	</desc>
	<defs>
		<linearGradient id="paint_linear_2_3295_0" x1="16.999996" y1="9.000000" x2="-1.000000" y2="9.000000" gradientUnits="userSpaceOnUse">
			<stop stop-color="#001C54"/>
			<stop offset="1.000000" stop-color="#001C54"/>
		</linearGradient>
	</defs>
	<path d="M14.31 0L1.68 0C0.2 0 -1 1.19 -1 2.65L-1 15.34C-1 16.8 0.2 18 1.68 18L7.08 18L7.08 11.72L4.93 11.72L4.93 8.53L7.08 8.53L7.08 6.37C7.08 4.61 8.52 3.18 10.29 3.18L13.55 3.18L13.55 6.37L10.29 6.37L10.29 8.53L13.55 8.53L13.01 11.72L10.29 11.72L10.29 18L14.31 18C15.79 18 17 16.8 17 15.34L17 2.65C17 1.19 15.79 0 14.31 0Z" fill="url(#paint_linear_2_3295_0)" fill-opacity="1.000000" fill-rule="nonzero"/>
</svg>
