<svg width="340.000000" height="54.000000" viewBox="0 0 340 54" fill="none" xmlns="http://www.w3.org/2000/svg" xmlns:xlink="http://www.w3.org/1999/xlink">
	<desc>
			Created with Pixso.
	</desc>
	<defs>
		<filter id="filter_2_3257_dd" x="0.000000" y="0.000000" width="340.000000" height="54.000000" filterUnits="userSpaceOnUse" color-interpolation-filters="sRGB">
			<feFlood flood-opacity="0" result="BackgroundImageFix"/>
			<feGaussianBlur in="BackgroundImage" stdDeviation="18.6667"/>
			<feComposite in2="SourceAlpha" operator="in" result="effect_backgroundBlur_1"/>
			<feBlend mode="normal" in="SourceGraphic" in2="effect_backgroundBlur_1" result="shape"/>
		</filter>
	</defs>
	<g filter="url(#filter_2_3257_dd)">
		<path id="Rectangle 2024" d="M6 14L112.78 14C116.1 14 118.78 11.31 118.78 8L118.78 6C118.78 2.68 121.47 0 124.78 0L170 0L216.71 0C220.02 0 222.71 2.68 222.71 6L222.71 8C222.71 11.31 225.39 14 228.71 14L334 14C337.31 14 340 16.68 340 20L340 48C340 51.31 337.31 54 334 54L6 54C2.68 54 0 51.31 0 48L0 20C0 16.68 2.68 14 6 14Z" fill="#FFFFFF" fill-opacity="0.900000" fill-rule="nonzero"/>
	</g>
</svg>
