<svg width="18.000000" height="18.000000" viewBox="0 0 18 18" fill="none" xmlns="http://www.w3.org/2000/svg" xmlns:xlink="http://www.w3.org/1999/xlink">
	<desc>
			Created with Pixso.
	</desc>
	<defs>
		<linearGradient id="paint_linear_2_3297_0" x1="17.951824" y1="8.999755" x2="-0.044922" y2="8.999755" gradientUnits="userSpaceOnUse">
			<stop stop-color="#001C54"/>
			<stop offset="1.000000" stop-color="#001C54"/>
		</linearGradient>
	</defs>
	<path id="Intersect" d="M4.19885 0.00878906C3.10986 0.126221 2.11487 0.61084 1.32825 1.40674C0.628784 2.1145 0.227783 2.86523 0.0181885 3.85938C-0.0407715 4.13892 -0.0449219 4.48071 -0.0449219 9.00122C-0.0449219 13.522 -0.0407715 13.8638 0.0181885 14.1431C0.228027 15.1384 0.630127 15.8906 1.32825 16.5942C2.03711 17.3083 2.80701 17.7246 3.81152 17.9365C4.09094 17.9954 4.43262 17.9995 8.95337 17.9995C9.24988 17.9995 9.52905 17.9998 9.79199 17.9998C13.4937 18.0002 13.9868 18.0005 14.4386 17.8638C14.5402 17.833 14.6396 17.7954 14.7729 17.7493C15.4653 17.51 15.9891 17.1785 16.5479 16.6265C17.2567 15.926 17.6766 15.1482 17.8885 14.1431C17.9475 13.8638 17.9517 13.522 17.9517 9.00122C17.9517 8.70483 17.9517 8.42603 17.9518 8.16333C17.9524 4.48071 17.9524 4.00171 17.8246 3.55981C17.7964 3.4624 17.7618 3.3667 17.7198 3.23853C17.4854 2.52515 17.135 1.96704 16.5613 1.39331C15.8647 0.696777 15.1664 0.311035 14.1833 0.0803223C13.8694 0.0065918 13.8195 0.00585938 9.09424 0.000732422C8.4939 0 7.91565 -0.000244141 7.37988 -0.000244141L7.37939 -0.000244141C5.57336 -0.000244141 4.25122 0.00317383 4.19885 0.00878906ZM12.4224 3.25317C13.558 3.57202 14.4025 4.42261 14.7024 5.5498L14.782 5.84937L14.782 12.1533L14.7024 12.4526C14.4001 13.5886 13.5408 14.448 12.4048 14.7502L12.1055 14.8298L8.95337 14.8298C6.0636 14.8298 5.78137 14.8247 5.56079 14.7681C4.38794 14.467 3.51111 13.6052 3.20435 12.4526L3.12476 12.1533L3.12476 5.84937L3.20435 5.5498C3.52661 4.33911 4.49731 3.4314 5.7074 3.20947C5.9281 3.16919 6.54077 3.16138 9.05908 3.16699C12.1359 3.17407 12.1411 3.17407 12.4224 3.25317ZM5.75562 4.28271C5.37012 4.38379 5.09717 4.5437 4.79639 4.84424C4.49133 5.14941 4.33496 5.41968 4.23328 5.81738C4.16675 6.07764 4.1637 6.2168 4.1637 9.00122C4.1637 11.7859 4.16675 11.925 4.23328 12.1851C4.33496 12.583 4.49133 12.8533 4.79639 13.1582C5.10144 13.4634 5.3717 13.6196 5.76953 13.7214C6.02966 13.7881 6.16882 13.791 8.95337 13.791C11.7379 13.791 11.8772 13.7881 12.1372 13.7214C12.535 13.6196 12.8053 13.4634 13.1104 13.1582C13.4154 12.8533 13.5718 12.583 13.6735 12.1851C13.74 11.925 13.743 11.7859 13.743 9.00122C13.743 6.2168 13.74 6.07764 13.6735 5.81738C13.5718 5.41968 13.4154 5.14941 13.1104 4.84424C12.8053 4.53931 12.535 4.38281 12.1372 4.28125C11.8767 4.2146 11.7413 4.21167 8.93896 4.21362C6.17419 4.21533 5.99841 4.21924 5.75562 4.28271ZM12.2296 5.51514C12.3859 5.59497 12.5104 5.79785 12.5104 5.97241C12.5104 6.24048 12.2501 6.50073 11.9822 6.50073C11.8074 6.50073 11.6045 6.37622 11.5248 6.21997C11.3906 5.95703 11.4691 5.68066 11.7213 5.52783C11.8899 5.42578 12.0468 5.42188 12.2296 5.51514ZM9.47034 6.41528C9.99805 6.52417 10.4395 6.76392 10.8171 7.14673C11.1628 7.49707 11.3853 7.87988 11.514 8.34619C11.5953 8.64087 11.5953 9.36157 11.514 9.65625C11.2421 10.6414 10.4576 11.3835 9.47424 11.5867C7.64648 11.9641 5.99243 10.3103 6.36768 8.48022C6.65942 7.05713 8.06116 6.12402 9.47034 6.41528ZM8.58215 7.46558C8.29041 7.53638 8.06775 7.66406 7.84143 7.88989C7.21631 8.51367 7.21631 9.48999 7.84143 10.1123C8.46985 10.7378 9.44226 10.738 10.0643 10.1133C10.6898 9.48486 10.6902 8.5144 10.0653 7.8894C9.66333 7.4873 9.12524 7.33374 8.58215 7.46558Z" clip-rule="evenodd" fill="url(#paint_linear_2_3297_0)" fill-opacity="1.000000" fill-rule="evenodd"/>
</svg>
