<svg width="105.000000" height="28.000000" viewBox="0 0 105 28" fill="none" xmlns="http://www.w3.org/2000/svg" xmlns:xlink="http://www.w3.org/1999/xlink">
	<desc>
			Created with Pixso.
	</desc>
	<defs>
		<clipPath id="clip2_3276">
			<rect rx="-0.311281" width="104.065758" height="27.415186" transform="translate(0.293825 0.243165) rotate(-0.288471)" fill="white" fill-opacity="0"/>
		</clipPath>
	</defs>
	<g clip-path="url(#clip2_3276)">
		<path d="M52.75 4.01L53.57 4.02L53.45 26L52.63 25.99L52.75 4.01Z" fill="#001C54" fill-opacity="1.000000" fill-rule="nonzero"/>
		<path d="M44.62 3.97L44.63 13.87C44.64 16.14 44.49 17.2 44.37 17.68C44.21 18.32 43.92 18.91 43.51 19.45C43.1 19.97 42.6 20.38 42.01 20.67C41.42 20.96 40.71 21.11 39.88 21.12C39.07 21.11 38.3 20.93 37.59 20.57C36.91 20.23 36.39 19.77 36.02 19.19C35.64 18.6 35.42 17.99 35.35 17.36C35.28 16.59 35.24 15.42 35.23 13.86L35.22 3.96L30.4 3.97L30.4 5.48C32.35 8.11 33.51 11.38 33.52 14.93C33.52 17.41 32.96 19.75 31.95 21.84C32.19 22.2 32.44 22.54 32.73 22.86C33.59 23.82 34.67 24.57 35.96 25.1C37.22 25.62 38.64 25.88 40.19 25.89C42.18 25.88 43.95 25.34 45.44 24.27C46.93 23.21 47.99 21.86 48.58 20.26C49.15 18.72 49.43 16.63 49.42 13.86L49.41 3.96L44.62 3.97Z" fill="#001C54" fill-opacity="1.000000" fill-rule="nonzero"/>
		<path d="M0.21 3.98L0.23 25.9L5.03 25.9L5.01 3.98L0.21 3.98Z" fill="#001C54" fill-opacity="1.000000" fill-rule="nonzero"/>
		<path d="M17.27 21.31C15.72 21.31 14.44 20.76 13.35 19.64C12.49 18.75 11.96 17.64 11.73 16.28L27.84 16.28L27.81 15.09C27.74 11.74 26.69 9.04 24.71 7.06C22.72 5.08 20.24 4.07 17.33 4.08C14.41 4.08 11.92 5.16 9.94 7.3C7.97 9.42 6.97 11.99 6.97 14.95C6.98 17.91 7.97 20.48 9.93 22.59C11.91 24.71 14.45 25.79 17.47 25.79C21.7 25.78 24.93 23.73 27.07 19.66L27.62 18.57L22.5 18.53C21.24 20.4 19.52 21.31 17.27 21.31ZM17.36 8.67C18.77 8.67 19.97 9.07 21.04 9.91C21.74 10.45 22.25 11.12 22.59 11.94L12.34 11.94C13.34 9.74 14.99 8.66 17.36 8.67Z" fill="#D00000" fill-opacity="1.000000" fill-rule="nonzero"/>
		<path d="M28.5 24.65L28.16 26.11L27.23 24.94L25.76 25.06L26.56 23.81L26 22.42L27.42 22.8L28.53 21.84L28.62 23.33L29.87 24.11L28.5 24.65Z" fill="#D00000" fill-opacity="1.000000" fill-rule="nonzero"/>
		<path d="M31.37 17.98L31.78 19.41L30.4 18.88L29.19 19.73L29.27 18.23L28.1 17.32L29.52 16.93L30.02 15.52L30.82 16.77L32.29 16.82L31.37 17.98Z" fill="#D00000" fill-opacity="1.000000" fill-rule="nonzero"/>
		<path d="M30.88 10.3L31.95 11.32L30.51 11.57L29.89 12.94L29.2 11.61L27.74 11.43L28.77 10.36L28.48 8.89L29.8 9.55L31.09 8.82L30.88 10.3Z" fill="#D00000" fill-opacity="1.000000" fill-rule="nonzero"/>
		<path d="M26.72 4.08L28.16 4.41L27.03 5.36L27.16 6.86L25.92 6.06L24.56 6.65L24.92 5.2L23.95 4.07L25.42 3.97L26.17 2.69L26.72 4.08Z" fill="#D00000" fill-opacity="1.000000" fill-rule="nonzero"/>
		<path d="M20.13 0.81L21.54 0.37L21.03 1.77L21.87 3L20.4 2.94L19.52 4.14L19.12 2.69L17.73 2.21L18.95 1.38L18.97 -0.12L20.13 0.81Z" fill="#D00000" fill-opacity="1.000000" fill-rule="nonzero"/>
		<path d="M12.75 1.34L13.75 0.24L14 1.71L15.34 2.34L14.04 3.04L13.86 4.53L12.81 3.48L11.36 3.77L12.01 2.43L11.29 1.12L12.75 1.34Z" fill="#D00000" fill-opacity="1.000000" fill-rule="nonzero"/>
		<path d="M6.64 5.54L6.96 4.08L7.91 5.23L9.37 5.09L8.59 6.36L9.17 7.74L7.74 7.37L6.64 8.36L6.54 6.86L5.27 6.09L6.64 5.54Z" fill="#D00000" fill-opacity="1.000000" fill-rule="nonzero"/>
		<path d="M81.79 25.65Q82.04 25.29 82.08 24.78L81.17 24.78Q81.14 25.18 80.93 25.38Q80.72 25.57 80.3 25.57Q79.99 25.57 79.78 25.42Q79.69 25.34 79.62 25.24Q79.4 24.91 79.4 24.19L79.4 23.86Q79.41 23.17 79.63 22.85Q79.71 22.73 79.82 22.66Q80.02 22.52 80.32 22.52Q80.73 22.52 80.94 22.71Q81.14 22.91 81.18 23.33L82.09 23.33Q82.03 22.73 81.71 22.35Q81.63 22.26 81.55 22.18Q81.49 22.14 81.44 22.1Q80.99 21.77 80.32 21.77Q79.83 21.77 79.46 21.97Q79.4 22 79.35 22.03Q79.24 22.1 79.15 22.18Q78.87 22.41 78.7 22.78Q78.48 23.26 78.48 23.9L78.48 24.17Q78.48 25.17 78.97 25.74Q79.13 25.93 79.33 26.05Q79.73 26.31 80.3 26.31Q81.01 26.31 81.46 25.98Q81.51 25.94 81.55 25.9Q81.69 25.79 81.79 25.65ZM102.61 24.81Q102.69 24.93 102.69 25.09Q102.69 25.23 102.63 25.33Q102.59 25.4 102.51 25.46Q102.33 25.59 102 25.59Q101.49 25.59 101.28 25.34Q101.13 25.16 101.13 24.86L100.21 24.86Q100.21 25.18 100.34 25.44Q100.38 25.53 100.43 25.62Q100.44 25.62 100.44 25.63Q100.66 25.94 101.07 26.13Q101.49 26.31 102 26.31Q102.74 26.31 103.17 25.99Q103.36 25.85 103.46 25.66Q103.6 25.41 103.6 25.09Q103.6 24.8 103.49 24.56Q103.4 24.38 103.25 24.23Q102.89 23.88 102.12 23.65Q101.69 23.52 101.48 23.37Q101.32 23.27 101.28 23.13Q101.26 23.07 101.26 23.01Q101.26 22.9 101.3 22.81Q101.35 22.71 101.45 22.64Q101.63 22.5 101.96 22.5Q102.31 22.5 102.5 22.67Q102.55 22.71 102.59 22.76Q102.69 22.91 102.69 23.14L103.6 23.14Q103.6 22.87 103.51 22.63Q103.46 22.53 103.4 22.43Q103.35 22.36 103.3 22.3Q103.11 22.08 102.82 21.95Q102.45 21.77 101.98 21.77Q101.51 21.77 101.13 21.93Q100.75 22.09 100.55 22.37Q100.47 22.48 100.42 22.61Q100.35 22.8 100.35 23.01Q100.35 23.22 100.42 23.4Q100.58 23.82 101.1 24.1Q101.38 24.25 101.85 24.41Q102.33 24.56 102.51 24.7Q102.57 24.75 102.61 24.81ZM59.31 25.04L58.17 21.83L56.99 21.83L56.99 26.25L57.9 26.25L57.9 25.04L57.8 22.96L58.99 26.25L59.62 26.25L60.81 22.96L60.72 25.04L60.72 26.25L61.63 26.25L61.63 21.83L60.44 21.83L59.31 25.04ZM63.38 25.34L64.98 25.34L65.28 26.25L66.25 26.25L64.6 21.83L63.75 21.83L62.11 26.25L63.08 26.25L63.38 25.34ZM69.51 25.52L67.57 25.52L67.57 21.83L66.66 21.83L66.66 26.25L69.51 26.25L69.51 25.52ZM71.38 22.57L72.73 22.57L72.73 21.83L69.13 21.83L69.13 22.57L70.47 22.57L70.47 26.25L71.38 26.25L71.38 22.57ZM73.78 25.34L75.38 25.34L75.69 26.25L76.65 26.25L75 21.83L74.16 21.83L72.51 26.25L73.48 26.25L73.78 25.34ZM83.58 25.34L85.17 25.34L85.48 26.25L86.45 26.25L84.79 21.83L83.95 21.83L82.31 26.25L83.27 26.25L83.58 25.34ZM89.18 25.04L88.05 21.83L86.86 21.83L86.86 26.25L87.77 26.25L87.77 25.04L87.68 22.96L88.87 26.25L89.49 26.25L90.68 22.96L90.59 25.04L90.59 26.25L91.51 26.25L91.51 21.83L90.31 21.83L89.18 25.04ZM93.21 26.25L93.21 24.7L94.01 24.7Q94.8 24.7 95.24 24.32Q95.39 24.19 95.49 24.03Q95.68 23.72 95.68 23.3Q95.68 22.96 95.56 22.68Q95.52 22.6 95.48 22.53Q95.42 22.44 95.35 22.35Q95.17 22.15 94.9 22.02Q94.52 21.83 94.02 21.83L92.3 21.83L92.3 26.25L93.21 26.25ZM99.65 24.74L99.65 21.83L98.74 21.83L98.74 24.77Q98.73 25.2 98.52 25.4Q98.32 25.58 97.96 25.58Q97.63 25.58 97.43 25.42Q97.41 25.4 97.38 25.38Q97.18 25.18 97.18 24.75L97.18 21.83L96.27 21.83L96.27 24.78Q96.27 25.3 96.52 25.67Q96.61 25.79 96.73 25.9Q96.77 25.94 96.81 25.97Q97.25 26.31 97.96 26.31Q98.67 26.31 99.11 25.97Q99.16 25.93 99.2 25.89Q99.32 25.78 99.4 25.65Q99.65 25.28 99.65 24.74ZM94.02 23.96L93.21 23.96L93.21 22.57L94.05 22.57Q94.32 22.58 94.5 22.71Q94.54 22.74 94.57 22.78Q94.62 22.82 94.65 22.87Q94.77 23.05 94.77 23.3Q94.77 23.56 94.64 23.72Q94.61 23.76 94.58 23.79Q94.39 23.96 94.02 23.96ZM64.73 24.6L63.63 24.6L64.18 22.95L64.73 24.6ZM75.13 24.6L74.03 24.6L74.58 22.95L75.13 24.6ZM84.93 24.6L83.82 24.6L84.37 22.95L84.93 24.6Z" fill="#D00000" fill-opacity="1.000000" fill-rule="evenodd"/>
		<path d="M91.71 7.29Q91.94 6.8 91.94 6.14L91.94 5.95Q91.94 5.3 91.71 4.8Q91.53 4.43 91.24 4.18Q91.15 4.1 91.04 4.04Q90.95 3.98 90.86 3.94Q90.5 3.77 90.06 3.77Q89.62 3.77 89.26 3.94Q89.17 3.98 89.08 4.04Q88.97 4.1 88.88 4.18Q88.59 4.43 88.41 4.8Q88.18 5.3 88.18 5.95L88.18 6.17Q88.18 6.8 88.42 7.29Q88.59 7.65 88.87 7.89Q88.97 7.98 89.09 8.05Q89.18 8.11 89.28 8.15Q89.64 8.31 90.07 8.31Q90.51 8.31 90.88 8.14Q90.97 8.1 91.05 8.05Q91.17 7.97 91.28 7.88Q91.54 7.64 91.71 7.29ZM57.04 8.25L57.95 8.25L57.95 3.83L57.04 3.83L57.04 8.25ZM61.48 8.25L62.39 8.25L62.39 3.83L61.48 3.83L61.48 6.75L59.71 3.83L58.8 3.83L58.8 8.25L59.71 8.25L59.71 5.35L61.48 8.25ZM65.07 4.57L66.42 4.57L66.42 3.83L62.82 3.83L62.82 4.57L64.16 4.57L64.16 8.25L65.07 8.25L65.07 4.57ZM67.85 6.34L69.6 6.34L69.6 5.62L67.85 5.62L67.85 4.57L69.89 4.57L69.89 3.83L66.94 3.83L66.94 8.25L69.9 8.25L69.9 7.52L67.85 7.52L67.85 6.34ZM71.34 6.64L72.07 6.64L72.9 8.25L73.87 8.25L73.87 8.21L72.92 6.4Q73.32 6.23 73.51 5.92Q73.71 5.62 73.71 5.17Q73.71 4.73 73.5 4.42Q73.41 4.29 73.28 4.18Q72.86 3.83 72.08 3.83L70.43 3.83L70.43 8.25L71.34 8.25L71.34 6.64ZM77.08 8.25L77.99 8.25L77.99 3.83L77.08 3.83L77.08 6.75L75.31 3.83L74.4 3.83L74.4 8.25L75.31 8.25L75.31 5.35L77.08 8.25ZM79.74 7.34L81.33 7.34L81.64 8.25L82.61 8.25L80.96 3.83L80.11 3.83L78.47 8.25L79.44 8.25L79.74 7.34ZM84.63 4.57L85.98 4.57L85.98 3.83L82.38 3.83L82.38 4.57L83.72 4.57L83.72 8.25L84.63 8.25L84.63 4.57ZM86.56 8.25L87.47 8.25L87.47 3.83L86.56 3.83L86.56 8.25ZM95.28 8.25L96.19 8.25L96.19 3.83L95.29 3.83L95.29 6.75L93.51 3.83L92.6 3.83L92.6 8.25L93.51 8.25L93.51 5.35L95.28 8.25ZM97.94 7.34L99.54 7.34L99.84 8.25L100.81 8.25L99.16 3.83L98.31 3.83L96.67 8.25L97.64 8.25L97.94 7.34ZM104.07 7.52L102.13 7.52L102.13 3.83L101.22 3.83L101.22 8.25L104.07 8.25L104.07 7.52ZM90.77 4.89Q91.02 5.25 91.02 5.94L91.02 6.16Q91.02 6.85 90.77 7.21Q90.66 7.37 90.51 7.45Q90.32 7.57 90.07 7.57Q89.81 7.57 89.62 7.46Q89.46 7.36 89.35 7.19Q89.1 6.82 89.1 6.14L89.1 5.93Q89.1 5.24 89.35 4.88Q89.46 4.73 89.61 4.64Q89.8 4.53 90.06 4.53Q90.32 4.53 90.51 4.64Q90.66 4.73 90.77 4.89ZM72.08 5.9L71.34 5.9L71.34 4.57L72.08 4.57Q72.44 4.57 72.62 4.75Q72.65 4.78 72.67 4.81Q72.8 4.98 72.8 5.24Q72.8 5.48 72.69 5.63Q72.65 5.68 72.61 5.72Q72.6 5.73 72.6 5.73Q72.41 5.9 72.08 5.9ZM81.09 6.6L79.98 6.6L80.53 4.95L81.09 6.6ZM99.29 6.6L98.19 6.6L98.74 4.95L99.29 6.6ZM71.93 13.29Q72.16 12.8 72.16 12.14L72.16 11.95Q72.16 11.3 71.93 10.8Q71.75 10.43 71.46 10.18Q71.37 10.1 71.26 10.04Q71.17 9.98 71.08 9.94Q70.72 9.77 70.28 9.77Q69.84 9.77 69.48 9.94Q69.39 9.98 69.3 10.04Q69.2 10.1 69.1 10.18Q68.81 10.43 68.64 10.8Q68.4 11.3 68.4 11.95L68.4 12.17Q68.4 12.81 68.64 13.29Q68.81 13.65 69.09 13.89Q69.19 13.98 69.31 14.05Q69.4 14.11 69.51 14.15Q69.86 14.31 70.29 14.31Q70.73 14.31 71.1 14.14Q71.19 14.1 71.27 14.05Q71.39 13.97 71.5 13.88Q71.77 13.64 71.93 13.29ZM57.9 12.34L59.64 12.34L59.64 11.62L57.9 11.62L57.9 10.57L59.94 10.57L59.94 9.83L56.99 9.83L56.99 14.25L59.95 14.25L59.95 13.52L57.9 13.52L57.9 12.34ZM63.82 12.74L63.82 9.83L62.91 9.83L62.91 12.77Q62.9 13.2 62.69 13.4Q62.49 13.58 62.13 13.58Q61.8 13.58 61.6 13.42Q61.58 13.4 61.56 13.38Q61.35 13.18 61.35 12.75L61.35 9.83L60.44 9.83L60.44 12.78Q60.44 13.3 60.69 13.67Q60.78 13.79 60.9 13.9Q60.94 13.94 60.98 13.97Q61.42 14.31 62.13 14.31Q62.84 14.31 63.28 13.97Q63.33 13.93 63.37 13.89Q63.49 13.78 63.58 13.65Q63.82 13.28 63.82 12.74ZM65.48 12.64L66.2 12.64L67.03 14.25L68.01 14.25L68.01 14.21L67.05 12.4Q67.45 12.23 67.65 11.92Q67.84 11.62 67.84 11.17Q67.84 10.73 67.64 10.42Q67.55 10.29 67.42 10.18Q66.99 9.83 66.21 9.83L64.57 9.83L64.57 14.25L65.48 14.25L65.48 12.64ZM73.73 14.25L73.73 12.7L74.53 12.7Q75.32 12.7 75.76 12.32Q75.92 12.19 76.02 12.03Q76.21 11.72 76.21 11.3Q76.21 10.96 76.08 10.68Q76.05 10.6 76 10.53Q75.94 10.44 75.87 10.35Q75.69 10.15 75.42 10.02Q75.05 9.83 74.55 9.83L72.82 9.83L72.82 14.25L73.73 14.25ZM77.74 12.34L79.49 12.34L79.49 11.62L77.74 11.62L77.74 10.57L79.79 10.57L79.79 9.83L76.83 9.83L76.83 14.25L79.79 14.25L79.79 13.52L77.74 13.52L77.74 12.34ZM81.23 13.34L82.82 13.34L83.13 14.25L84.1 14.25L82.44 9.83L81.6 9.83L79.95 14.25L80.92 14.25L81.23 13.34ZM87.19 14.25L88.1 14.25L88.1 9.83L87.19 9.83L87.19 12.75L85.42 9.83L84.51 9.83L84.51 14.25L85.42 14.25L85.42 11.35L87.19 14.25ZM70.99 10.89Q71.24 11.25 71.24 11.94L71.24 12.16Q71.24 12.85 70.99 13.21Q70.88 13.37 70.73 13.45Q70.54 13.57 70.29 13.57Q70.03 13.57 69.84 13.46Q69.69 13.36 69.57 13.19Q69.32 12.82 69.32 12.14L69.32 11.93Q69.33 11.24 69.58 10.88Q69.68 10.73 69.83 10.64Q70.03 10.53 70.28 10.53Q70.54 10.53 70.73 10.64Q70.88 10.73 70.99 10.89ZM66.21 11.9L65.48 11.9L65.48 10.57L66.21 10.57Q66.58 10.57 66.76 10.75Q66.78 10.78 66.81 10.81Q66.93 10.98 66.93 11.24Q66.93 11.48 66.82 11.63Q66.79 11.68 66.74 11.72Q66.74 11.73 66.74 11.73Q66.55 11.9 66.21 11.9ZM74.55 11.96L73.73 11.96L73.73 10.57L74.57 10.57Q74.84 10.58 75.02 10.71Q75.06 10.74 75.1 10.78Q75.14 10.82 75.17 10.87Q75.29 11.05 75.29 11.3Q75.29 11.56 75.17 11.72Q75.14 11.76 75.1 11.79Q74.91 11.96 74.55 11.96ZM82.58 12.6L81.47 12.6L82.02 10.95L82.58 12.6ZM81.01 18.81Q81.09 18.93 81.09 19.09Q81.09 19.23 81.03 19.33Q80.98 19.4 80.9 19.46Q80.72 19.59 80.4 19.59Q79.88 19.59 79.67 19.34Q79.52 19.16 79.52 18.86L78.61 18.86Q78.61 19.18 78.73 19.44Q78.77 19.53 78.83 19.62Q78.83 19.62 78.84 19.63Q79.06 19.94 79.47 20.13Q79.89 20.31 80.4 20.31Q81.13 20.31 81.57 19.99Q81.75 19.85 81.86 19.66Q82 19.41 82 19.09Q82 18.8 81.89 18.56Q81.8 18.38 81.64 18.23Q81.29 17.88 80.51 17.65Q80.09 17.52 79.87 17.37Q79.72 17.27 79.67 17.13Q79.66 17.07 79.66 17.01Q79.66 16.9 79.7 16.81Q79.75 16.71 79.84 16.64Q80.03 16.5 80.36 16.5Q80.71 16.5 80.9 16.67Q80.95 16.71 80.98 16.76Q81.09 16.91 81.09 17.14L82 17.14Q82 16.87 81.9 16.63Q81.86 16.53 81.79 16.43Q81.75 16.36 81.7 16.3Q81.51 16.08 81.22 15.95Q80.85 15.77 80.38 15.77Q79.91 15.77 79.53 15.93Q79.15 16.09 78.95 16.37Q78.87 16.48 78.82 16.61Q78.75 16.8 78.75 17.01Q78.75 17.22 78.81 17.4Q78.97 17.82 79.5 18.1Q79.78 18.25 80.25 18.41Q80.72 18.56 80.9 18.7Q80.97 18.75 81.01 18.81ZM60.33 18.74L60.33 15.83L59.42 15.83L59.42 18.77Q59.41 19.2 59.19 19.4Q59 19.58 58.64 19.58Q58.3 19.58 58.1 19.42Q58.08 19.4 58.06 19.38Q57.85 19.18 57.85 18.75L57.85 15.83L56.94 15.83L56.94 18.78Q56.95 19.3 57.2 19.67Q57.29 19.79 57.41 19.9Q57.45 19.94 57.49 19.97Q57.93 20.31 58.64 20.31Q59.35 20.31 59.79 19.97Q59.83 19.93 59.87 19.89Q59.99 19.78 60.08 19.65Q60.33 19.28 60.33 18.74ZM63.76 20.25L64.67 20.25L64.67 15.83L63.76 15.83L63.76 18.75L61.98 15.83L61.07 15.83L61.07 20.25L61.98 20.25L61.98 17.35L63.76 20.25ZM65.52 20.25L66.43 20.25L66.43 15.83L65.52 15.83L65.52 20.25ZM69.91 15.83L68.91 19.16L67.91 15.83L66.9 15.83L68.43 20.25L69.38 20.25L70.92 15.83L69.91 15.83ZM72.25 18.34L73.99 18.34L73.99 17.62L72.25 17.62L72.25 16.57L74.29 16.57L74.29 15.83L71.33 15.83L71.33 20.25L74.3 20.25L74.3 19.52L72.25 19.52L72.25 18.34ZM75.74 18.64L76.47 18.64L77.29 20.25L78.27 20.25L78.27 20.21L77.31 18.4Q77.71 18.23 77.91 17.92Q78.1 17.62 78.1 17.17Q78.1 16.73 77.9 16.42Q77.81 16.29 77.68 16.18Q77.25 15.83 76.47 15.83L74.83 15.83L74.83 20.25L75.74 20.25L75.74 18.64ZM82.67 20.25L83.58 20.25L83.58 15.83L82.67 15.83L82.67 20.25ZM86.31 16.57L87.66 16.57L87.66 15.83L84.06 15.83L84.06 16.57L85.4 16.57L85.4 20.25L86.31 20.25L86.31 16.57ZM90.67 15.83L89.75 17.83L88.84 15.83L87.84 15.83L89.29 18.65L89.29 20.25L90.22 20.25L90.22 18.65L91.67 15.83L90.67 15.83ZM76.47 17.9L75.74 17.9L75.74 16.57L76.47 16.57Q76.84 16.57 77.02 16.75Q77.04 16.78 77.07 16.81Q77.19 16.98 77.19 17.24Q77.19 17.48 77.08 17.63Q77.05 17.68 77.01 17.72Q77 17.73 77 17.73Q76.81 17.9 76.47 17.9ZM91.08 21.12L91.54 21.36Q91.8 21.13 91.97 20.79Q92.13 20.45 92.14 20.11L92.14 19.51L91.4 19.51L91.4 20.19Q91.39 20.55 91.19 20.92L91.08 21.12Z" fill="#001C54" fill-opacity="1.000000" fill-rule="evenodd"/>
	</g>
</svg>
