<svg width="20.000000" height="20.000000" viewBox="0 0 20 20" fill="none" xmlns="http://www.w3.org/2000/svg" xmlns:xlink="http://www.w3.org/1999/xlink">
	<desc>
			Created with Pixso.
	</desc>
	<defs>
		<linearGradient id="paint_linear_2_3330_0" x1="19.999996" y1="10.000000" x2="0.000000" y2="10.000000" gradientUnits="userSpaceOnUse">
			<stop stop-color="#001C54"/>
			<stop offset="1.000000" stop-color="#001C54"/>
		</linearGradient>
		<linearGradient id="paint_linear_2_3333_0" x1="14.999998" y1="10.000000" x2="5.000000" y2="10.000000" gradientUnits="userSpaceOnUse">
			<stop stop-color="#001C54"/>
			<stop offset="1.000000" stop-color="#001C54"/>
		</linearGradient>
	</defs>
	<rect id="Rectangle 2023" x="0.500000" y="0.500000" rx="3.704213" width="19.000000" height="19.000000" stroke="url(#paint_linear_2_3330_0)" stroke-opacity="1.000000" stroke-width="1.000000"/>
	<path id="Vector" d="M10 5L9.99 5C7.24 5 5 7.24 5 10C5 11.09 5.35 12.1 5.95 12.93L5.32 14.78L7.25 14.17C8.04 14.69 8.98 15 10 15C12.75 15 15 12.75 15 10C15 7.24 12.75 5 10 5ZM12.91 12.06C12.79 12.4 12.31 12.68 11.92 12.76C11.66 12.82 11.32 12.86 10.17 12.38C8.7 11.78 7.76 10.28 7.68 10.19C7.61 10.09 7.09 9.4 7.09 8.68C7.09 7.96 7.45 7.61 7.6 7.46C7.72 7.34 7.92 7.28 8.11 7.28C8.17 7.28 8.23 7.29 8.28 7.29C8.43 7.29 8.5 7.3 8.6 7.53C8.72 7.83 9.01 8.54 9.05 8.62C9.08 8.69 9.12 8.79 9.07 8.89C9.02 8.99 8.98 9.03 8.91 9.12C8.83 9.2 8.76 9.27 8.69 9.36C8.62 9.44 8.55 9.52 8.63 9.67C8.71 9.81 9.01 10.29 9.44 10.68C10 11.17 10.45 11.33 10.61 11.4C10.73 11.45 10.88 11.44 10.97 11.34C11.08 11.22 11.22 11.02 11.36 10.83C11.46 10.69 11.58 10.67 11.72 10.72C11.85 10.77 12.56 11.12 12.71 11.19C12.86 11.27 12.96 11.3 12.99 11.36C13.03 11.42 13.03 11.71 12.91 12.06Z" fill="url(#paint_linear_2_3333_0)" fill-opacity="1.000000" fill-rule="nonzero"/>
</svg>
