<svg width="20.000000" height="20.000000" viewBox="0 0 20 20" fill="none" xmlns="http://www.w3.org/2000/svg" xmlns:xlink="http://www.w3.org/1999/xlink">
	<desc>
			Created with Pixso.
	</desc>
	<defs>
		<linearGradient id="paint_linear_2_3318_0" x1="19.999996" y1="10.000000" x2="0.000000" y2="10.000000" gradientUnits="userSpaceOnUse">
			<stop stop-color="#001C54"/>
			<stop offset="1.000000" stop-color="#001C54"/>
		</linearGradient>
	</defs>
	<rect x="0.500000" y="0.500000" rx="4.143075" width="19.000000" height="19.000000" stroke="url(#paint_linear_2_3318_0)" stroke-opacity="1.000000" stroke-width="1.000000"/>
	<path d="M9.87 5.03C9.83 5.05 9.63 5.21 9.42 5.38L9.04 5.71L9.52 5.71C9.78 5.71 10.21 5.71 10.48 5.71L10.96 5.71L10.57 5.38C10.36 5.21 10.16 5.05 10.13 5.03C10.05 4.98 9.95 4.98 9.87 5.03ZM7.01 6.34C6.97 6.37 6.92 6.41 6.9 6.46C6.86 6.53 6.86 6.57 6.86 8.31L6.86 10.08L7.89 10.88L8.92 11.68L10 11.68L11.07 11.68L12.1 10.88L13.13 10.08L13.13 8.31C13.13 6.57 13.13 6.53 13.1 6.46C13.07 6.41 13.03 6.37 12.98 6.34C12.9 6.3 12.87 6.3 9.99 6.3C7.14 6.3 7.08 6.3 7.01 6.34ZM10.3 7.01C11.01 7.11 11.62 7.55 11.94 8.19C12.08 8.46 12.13 8.7 12.13 9.01C12.13 9.52 11.92 10.04 11.62 10.26C11.46 10.38 11.32 10.43 11.1 10.44C10.87 10.45 10.75 10.41 10.59 10.26L10.48 10.16L10.37 10.22C10.15 10.36 9.85 10.39 9.61 10.31C9.16 10.15 8.86 9.69 8.86 9.13C8.85 8.65 9.06 8.27 9.43 8.05C9.65 7.92 9.99 7.88 10.22 7.96C10.28 7.98 10.34 8 10.35 8C10.36 8 10.38 7.97 10.39 7.93C10.49 7.74 10.78 7.74 10.9 7.93C10.94 7.99 10.94 8.03 10.94 8.88C10.94 9.89 10.93 9.86 11.08 9.86C11.18 9.86 11.25 9.82 11.34 9.72C11.5 9.53 11.59 9.02 11.52 8.72C11.39 8.21 10.96 7.78 10.42 7.63C10.21 7.57 9.82 7.56 9.62 7.62C8.91 7.81 8.45 8.41 8.45 9.14C8.45 9.4 8.49 9.59 8.61 9.83C8.77 10.15 9.02 10.39 9.34 10.54C9.52 10.63 9.68 10.67 9.88 10.69C10.07 10.71 10.16 10.75 10.21 10.85C10.26 10.95 10.26 11.03 10.21 11.13C10.16 11.22 10.05 11.29 9.93 11.28C9.68 11.28 9.29 11.18 9.02 11.04C8.31 10.67 7.86 9.94 7.86 9.15C7.86 8.57 8.06 8.07 8.45 7.66C8.93 7.15 9.62 6.91 10.3 7.01ZM5.8 8.42C5.55 8.63 5.33 8.82 5.31 8.83C5.29 8.85 5.37 8.92 5.77 9.23C6.04 9.44 6.26 9.6 6.26 9.6C6.27 9.59 6.27 9.24 6.27 8.81L6.26 8.04L5.8 8.42ZM13.72 8.82C13.72 9.25 13.73 9.6 13.73 9.6C13.75 9.6 14.68 8.89 14.69 8.86C14.7 8.85 13.82 8.1 13.75 8.05C13.73 8.04 13.72 8.17 13.72 8.82ZM9.81 8.52C9.7 8.55 9.63 8.61 9.55 8.72C9.36 8.99 9.42 9.47 9.68 9.68C9.93 9.89 10.23 9.72 10.32 9.32C10.36 9.18 10.35 8.98 10.31 8.84C10.24 8.59 10.02 8.45 9.81 8.52ZM5 11.97C5 13.39 5 14.55 5 14.55C5.02 14.55 8.32 11.98 8.32 11.97C8.32 11.95 5.02 9.39 5 9.39C5 9.39 5 10.55 5 11.97ZM13.33 10.67C12.42 11.38 11.67 11.96 11.67 11.97C11.67 11.98 12.42 12.56 13.33 13.27L14.99 14.55L14.99 13.26C15 12.55 15 11.39 14.99 10.68L14.99 9.39L13.33 10.67ZM7.16 13.62L5.4 14.99L7.7 14.99C8.96 15 11.03 15 12.29 14.99L14.59 14.99L12.83 13.62L11.07 12.26L10 12.26L8.92 12.26L7.16 13.62Z" fill="#001C54" fill-opacity="1.000000" fill-rule="evenodd"/>
</svg>
